mtllib material.mtl
usemtl material_0
v -0.06500000 0.02579900 0.08462900
v -0.06500000 0.02579900 0.09412900
v -0.03500000 0.02579900 0.09412900
v -0.03500000 0.02579900 0.08462900
v -0.06500000 0.02579900 0.04462900
v -0.06500000 0.02579900 0.05412900
v -0.03500000 0.02579900 0.05412900
v -0.03500000 0.02579900 0.04462900
vn -0.00000000 1.00000000 -0.00000000
vn -0.00000000 1.00000000 -0.00000000
vn -0.00000000 1.00000000 -0.00000000
vn -0.00000000 1.00000000 -0.00000000
vn -0.00000000 1.00000000 -0.00000000
vn -0.00000000 1.00000000 -0.00000000
vn -0.00000000 1.00000000 -0.00000000
vn -0.00000000 1.00000000 -0.00000000
f 2//2 3//3 4//4
f 4//4 1//1 2//2
f 6//6 7//7 8//8
f 8//8 5//5 6//6

