mtllib material.mtl
usemtl material_0
v 3.72480000 35.58050000 11.65210000
v 4.36600000 35.57260000 11.65860000
v 4.36600000 37.53350000 11.65860000
v 3.72480000 37.53350000 11.65210000
v 6.91950000 35.54120000 11.65850000
v 6.91950000 37.53350000 11.65850000
v 6.92190000 35.54110000 11.65850000
v 9.47290000 35.50970000 11.63300000
v 9.47290000 37.53350000 11.63300000
v 12.02610000 35.47830000 11.58190000
v 12.02610000 37.53350000 11.58190000
v 14.57870000 35.44680000 11.50520000
v 14.57870000 37.53350000 11.50520000
v 15.21950000 35.43890000 11.47960000
v 15.21950000 37.53350000 11.47960000
v 6.91950000 37.72410000 11.65850000
v 4.36600000 37.72410000 11.65860000
v 4.36600000 35.38200000 11.65860000
v 6.91950000 35.35060000 11.65850000
v 3.53420000 37.72410000 11.65020000
v 3.53420000 35.39230000 11.65020000
v 9.47290000 35.31910000 11.63300000
v 9.47290000 37.72410000 11.63300000
v 14.57870000 37.72410000 11.50520000
v 12.02610000 37.72410000 11.58190000
v 12.02610000 35.28770000 11.58190000
v 14.57870000 35.25620000 11.50520000
v 15.40990000 35.24600000 11.47190000
v 15.40990000 37.72410000 11.47190000
v 9.47550000 35.31910000 11.63290000
v 14.53500000 37.59350000 11.13560000
v 15.27890000 37.59350000 11.12520000
v 14.53500000 35.30040000 11.13560000
v 11.98240000 35.33190000 11.16220000
v 9.42920000 35.36340000 11.18000000
v 4.32230000 35.42630000 11.18890000
v 3.57790000 37.59350000 11.18630000
v 4.32230000 37.59350000 11.18890000
v 6.87580000 35.39480000 11.18890000
v 11.98240000 37.59350000 11.16220000
v 6.87580000 37.59350000 11.18890000
v 15.27890000 35.29130000 11.12520000
v 9.42920000 37.59350000 11.18000000
v 3.57790000 35.43540000 11.18630000
v -19.28860000 52.64580000 10.70370000
v -17.87210000 52.64580000 10.76230000
v -17.87210000 57.30100000 10.76230000
v -19.28860000 57.30100000 10.70370000
v -20.70390000 52.64580000 10.62610000
v -20.70390000 57.30100000 10.62610000
v -21.32100000 52.64580000 10.58390000
v -21.31780000 57.30100000 10.58410000
v -13.61910000 52.64580000 10.82350000
v -12.20130000 52.64580000 10.80580000
v -12.20130000 57.30100000 10.80580000
v -13.61910000 57.30100000 10.82350000
v -11.58650000 52.64580000 10.78980000
v -11.58650000 57.30100000 10.78980000
v -15.03700000 52.64580000 10.82220000
v -15.03700000 57.30100000 10.82220000
v -16.45480000 52.64580000 10.80180000
v -16.45480000 57.30100000 10.80180000
vn -0.00860000 -0.00000000 1.00000000
vn -0.00430000 -0.00000000 1.00000000
vn -0.00430000 -0.00000000 1.00000000
vn -0.00860000 -0.00000000 1.00000000
vn 0.00430000 -0.00000000 1.00000000
vn 0.00430000 -0.00000000 1.00000000
vn 0.00860000 -0.00000000 1.00000000
vn 0.01280000 -0.00000000 0.99990000
vn 0.01280000 -0.00000000 0.99990000
vn 0.02140000 0.00000000 0.99980000
vn 0.02140000 0.00000000 0.99980000
vn 0.03000000 0.00000000 0.99960000
vn 0.03000000 0.00000000 0.99960000
vn 0.03430000 0.00000000 0.99940000
vn 0.03430000 0.00000000 0.99940000
vn 0.00430000 -0.00000000 1.00000000
vn -0.00430000 -0.00000000 1.00000000
vn -0.00430000 -0.00000000 1.00000000
vn 0.00430000 -0.00000000 1.00000000
vn -0.00860000 -0.00000000 1.00000000
vn -0.00860000 -0.00000000 1.00000000
vn 0.01280000 -0.00000000 0.99990000
vn 0.01280000 -0.00000000 0.99990000
vn 0.03000000 0.00000000 0.99960000
vn 0.02140000 0.00000000 0.99980000
vn 0.02140000 0.00000000 0.99980000
vn 0.03000000 0.00000000 0.99960000
vn 0.03430000 0.00000000 0.99940000
vn 0.03430000 0.00000000 0.99940000
vn 0.01710000 0.00000000 0.99990000
vn 0.01220000 0.00000000 0.99990000
vn 0.01390000 0.00000000 0.99990000
vn 0.01220000 0.00000000 0.99990000
vn 0.00870000 -0.00000000 1.00000000
vn 0.00520000 0.00000000 1.00000000
vn -0.00170000 -0.00000000 1.00000000
vn -0.00350000 -0.00000000 1.00000000
vn -0.00170000 -0.00000000 1.00000000
vn 0.00170000 -0.00000000 1.00000000
vn 0.00870000 -0.00000000 1.00000000
vn 0.00170000 -0.00000000 1.00000000
vn 0.01390000 0.00000000 0.99990000
vn 0.00520000 0.00000000 1.00000000
vn -0.00350000 -0.00000000 1.00000000
vn -0.04810000 -0.00000000 0.99880000
vn -0.03460000 -0.00000000 0.99940000
vn -0.03460000 -0.00000000 0.99940000
vn -0.04810000 -0.00000000 0.99880000
vn -0.06150000 -0.00000000 0.99810000
vn -0.06150000 -0.00000000 0.99810000
vn -0.06820000 -0.00000000 0.99770000
vn -0.06820000 -0.00000000 0.99770000
vn 0.00580000 0.00000000 1.00000000
vn 0.01930000 -0.00000000 0.99980000
vn 0.01930000 -0.00000000 0.99980000
vn 0.00580000 0.00000000 1.00000000
vn 0.02600000 -0.00000000 0.99970000
vn 0.02600000 -0.00000000 0.99970000
vn -0.00770000 -0.00000000 1.00000000
vn -0.00770000 -0.00000000 1.00000000
vn -0.02110000 0.00000000 0.99980000
vn -0.02110000 0.00000000 0.99980000
vt 0.04760000 0.08360000
vt 0.20790000 0.08170000
vt 0.20790000 0.57190000
vt 0.04760000 0.57190000
vt 0.84630000 0.07380000
vt 0.84630000 0.57190000
vt 0.84630000 0.07380000
vt 1.48470000 0.06590000
vt 1.48470000 0.57190000
vt 2.12270000 0.05810000
vt 2.12270000 0.57190000
vt 2.76110000 0.05020000
vt 2.76110000 0.57190000
vt 2.92090000 0.04820000
vt 2.92090000 0.57190000
vt 0.84630000 0.61950000
vt 0.20790000 0.61950000
vt 0.20790000 0.03400000
vt 0.84630000 0.02620000
vt -0.00000000 0.61950000
vt -0.00000000 0.03660000
vt 1.48470000 0.01830000
vt 1.48470000 0.61950000
vt 2.76110000 0.61950000
vt 2.12270000 0.61950000
vt 2.12270000 0.01040000
vt 2.76110000 0.00260000
vt 2.96860000 -0.00000000
vt 2.96860000 0.61950000
vt 1.48470000 0.01830000
vt 2.76280000 0.59770000
vt 2.94930000 0.59770000
vt 2.76280000 0.02440000
vt 2.12410000 0.03230000
vt 1.48530000 0.04010000
vt 0.20740000 0.05590000
vt 0.02130000 0.59770000
vt 0.20740000 0.59770000
vt 0.84630000 0.04800000
vt 2.12410000 0.59770000
vt 0.84630000 0.59770000
vt 2.94930000 0.02210000
vt 1.48530000 0.59770000
vt 0.02130000 0.05820000
vt 0.50640000 0.00000000
vt 0.86090000 0.00000000
vt 0.86090000 1.16380000
vt 0.50640000 1.16380000
vt 0.15130000 0.00000000
vt 0.15130000 1.16380000
vt -0.00410000 0.00000000
vt -0.00330000 1.16380000
vt 1.92530000 0.00000000
vt 2.27980000 0.00000000
vt 2.27980000 1.16380000
vt 1.92530000 1.16380000
vt 2.43300000 0.00000000
vt 2.43300000 1.16380000
vt 1.57100000 0.00000000
vt 1.57100000 1.16380000
vt 1.21630000 0.00000000
vt 1.21630000 1.16380000
f 3/3/3 6/6/6 16/16/16
f 16/16/16 17/17/17 3/3/3
f 18/18/18 19/19/19 5/5/5
f 5/5/5 2/2/2 18/18/18
f 4/4/4 3/3/3 17/17/17
f 17/17/17 20/20/20 4/4/4
f 1/1/1 4/4/4 20/20/20
f 20/20/20 21/21/21 1/1/1
f 2/2/2 1/1/1 21/21/21
f 21/21/21 18/18/18 2/2/2
f 19/19/19 22/22/22 8/8/8
f 8/8/8 5/5/5 19/19/19
f 5/5/5 8/8/8 7/7/7
f 6/6/6 9/9/9 23/23/23
f 23/23/23 16/16/16 6/6/6
f 11/11/11 13/13/13 24/24/24
f 24/24/24 25/25/25 11/11/11
f 26/26/26 27/27/27 12/12/12
f 12/12/12 10/10/10 26/26/26
f 14/14/14 27/27/27 28/28/28
f 28/28/28 29/29/29 14/14/14
f 15/15/15 14/14/14 29/29/29
f 29/29/29 13/13/13 15/15/15
f 13/13/13 29/29/29 24/24/24
f 12/12/12 27/27/27 14/14/14
f 30/30/30 26/26/26 10/10/10
f 10/10/10 22/22/22 30/30/30
f 22/22/22 10/10/10 8/8/8
f 9/9/9 11/11/11 25/25/25
f 25/25/25 23/23/23 9/9/9
f 44/44/44 36/36/36 38/38/38
f 38/38/38 37/37/37 44/44/44
f 36/36/36 39/39/39 41/41/41
f 41/41/41 38/38/38 36/36/36
f 39/39/39 35/35/35 43/43/43
f 43/43/43 41/41/41 39/39/39
f 35/35/35 34/34/34 40/40/40
f 40/40/40 43/43/43 35/35/35
f 34/34/34 33/33/33 31/31/31
f 31/31/31 40/40/40 34/34/34
f 33/33/33 42/42/42 32/32/32
f 32/32/32 31/31/31 33/33/33
f 45/45/45 46/46/46 47/47/47
f 47/47/47 48/48/48 45/45/45
f 49/49/49 45/45/45 48/48/48
f 48/48/48 50/50/50 49/49/49
f 51/51/51 49/49/49 50/50/50
f 50/50/50 52/52/52 51/51/51
f 53/53/53 54/54/54 55/55/55
f 55/55/55 56/56/56 53/53/53
f 54/54/54 57/57/57 58/58/58
f 58/58/58 55/55/55 54/54/54
f 59/59/59 53/53/53 56/56/56
f 56/56/56 60/60/60 59/59/59
f 61/61/61 59/59/59 60/60/60
f 60/60/60 62/62/62 61/61/61
f 46/46/46 61/61/61 62/62/62
f 62/62/62 47/47/47 46/46/46

